<svg xmlns="http://www.w3.org/2000/svg" width="920" height="300" viewBox="0 0 920 300">
  <defs>
    <style>
      .t { font-family: serif; fill: #333; }
      .muted { fill: #666; font-size: 14px; }
      .label { font-size: 16px; font-weight: 700; }
    </style>
    <marker id="arrow" viewBox="0 0 10 10" refX="9" refY="5" markerWidth="6" markerHeight="6" orient="auto-start-reverse">
      <path d="M 0 0 L 10 5 L 0 10 z" fill="#666" />
    </marker>
  </defs>

  <rect x="16" y="16" width="888" height="268" rx="14" fill="#fafafa" stroke="#e0e0e0" />
  <text x="44" y="54" class="t label">Hai cÃch tí chÕc team (Ch¯Àng 11)</text>

  <!-- Approach 1 -->
  <rect x="52" y="86" width="386" height="170" rx="14" fill="#e3f2fd" stroke="#90caf9"/>
  <text x="72" y="116" class="t muted"><tspan font-weight="700" fill="#0d47a1">Approach 1</tspan>: Separate team production</text>
  <rect x="78" y="136" width="130" height="56" rx="10" fill="#fff" stroke="#ddd"/>
  <text x="92" y="162" class="t muted"><tspan font-weight="700">DS/ML</tspan></text>
  <text x="92" y="184" class="t muted">dev model</text>
  <line x1="212" y1="164" x2="288" y2="164" stroke="#666" stroke-width="2" marker-end="url(#arrow)"/>
  <rect x="292" y="136" width="130" height="56" rx="10" fill="#fff" stroke="#ddd"/>
  <text x="306" y="162" class="t muted"><tspan font-weight="700">Ops/Platform</tspan></text>
  <text x="306" y="184" class="t muted">prodize</text>
  <text x="78" y="224" class="t muted">₤u: dé thuõ theo mìt mÈng.</text>
  <text x="78" y="246" class="t muted">Nh¯Ðc: overhead giao ti¢p, debug khµ.</text>

  <!-- Approach 2 -->
  <rect x="482" y="86" width="386" height="170" rx="14" fill="#fff3e0" stroke="#ffcc80"/>
  <text x="502" y="116" class="t muted"><tspan font-weight="700" fill="#e65100">Approach 2</tspan>: DS own end-to-end</text>
  <rect x="510" y="136" width="160" height="56" rx="10" fill="#fff" stroke="#ddd"/>
  <text x="524" y="162" class="t muted"><tspan font-weight="700">Data scientists</tspan></text>
  <text x="524" y="184" class="t muted">dev + deploy</text>
  <line x1="674" y1="164" x2="724" y2="164" stroke="#666" stroke-width="2" marker-end="url(#arrow)"/>
  <rect x="728" y="136" width="120" height="56" rx="10" fill="#fff" stroke="#ddd"/>
  <text x="742" y="162" class="t muted"><tspan font-weight="700">Tools</tspan></text>
  <text x="742" y="184" class="t muted">abstraction</text>
  <text x="510" y="224" class="t muted">Nh¯Ðc: unicorn, dé grumpy n¢u thi¢u tools.</text>
  <text x="510" y="246" class="t muted">iêu kiún: tooling/infrastructure Ó tît.</text>
</svg>
